<?xml version="1.0" standalone="no"?><!DOCTYPE svg PUBLIC "-//W3C//DTD SVG 1.1//EN" "http://www.w3.org/Graphics/SVG/1.1/DTD/svg11.dtd"><svg t="1544198770049" class="icon" style="" viewBox="0 0 1024 1024" version="1.1" xmlns="http://www.w3.org/2000/svg" p-id="9139" xmlns:xlink="http://www.w3.org/1999/xlink" width="200" height="200"><defs><style type="text/css"></style></defs><path d="M614.7 692.9v121.5L114.4 525.2V403.7z" fill="#CAD3D2" p-id="9140"></path><path d="M500.7 265.3l-155 130.4 60.5 35 94.5-98.7z" fill="#435387" p-id="9141"></path><path d="M423.4 220.6l-309 183.1 500.3 289.2L925 511l-86.8-50.3L626 529 370.1 380.9l130.6-115.6z" fill="#A0B1CD" p-id="9142"></path><path d="M925 633.4V511L614.7 692.9v121.5z" fill="#709AB0" p-id="9143"></path><path d="M717.9 588.8c0 35.5-42.8 64.3-95.7 64.3-52.8 0-95.7-28.8-95.7-64.3v-17h191.4v17z" fill="#E79764" p-id="9144"></path><path d="M526.5 571.8a95.7 64.3 0 1 0 191.4 0 95.7 64.3 0 1 0-191.4 0Z" fill="#FAD256" p-id="9145"></path><path d="M381.9 393.8c0 35.5-42.8 64.3-95.7 64.3s-95.7-28.8-95.7-64.3v-17h191.4v17z" fill="#E79764" p-id="9146"></path><path d="M190.5 376.8a95.7 64.3 0 1 0 191.4 0 95.7 64.3 0 1 0-191.4 0Z" fill="#FAD256" p-id="9147"></path><path d="M594.2 543.4v26.7L551 545.7V519z" fill="#B9C5EA" p-id="9148"></path><path d="M571.2 507.2L551 519l43.2 24.4 26.1 0.1-5.7-11.7z" fill="#FAEDDB" p-id="9149"></path><path d="M620.3 543.5l-26.1-0.1v26.7l26.4 0.4z" fill="#32426B" p-id="9150"></path><path d="M655.8 544.6v26.7l43.2-24.4v-26.7z" fill="#435387" p-id="9151"></path><path d="M678.8 508.4l20.2 11.8-43.2 24.4-26.1 0.1 5.7-11.7z" fill="#FAEDDB" p-id="9152"></path><path d="M629.7 544.7l26.1-0.1v26.7l-26.4 0.4z" fill="#5F95C0" p-id="9153"></path><path d="M673.2 588.2v26.7L630 590.5v-26.7z" fill="#B9C5EA" p-id="9154"></path><path d="M650.3 552l-19.5-0.2-0.8 12 43.2 24.4 20.5-11.6z" fill="#FAEDDB" p-id="9155"></path><path d="M693.6 576.6l-20.4 11.6v26.7l20.7-11.3z" fill="#32426B" p-id="9156"></path><path d="M579 588v26.7l43.2-24.4v-26.7z" fill="#435387" p-id="9157"></path><path d="M602 551.8l19.4-0.2 0.8 12L579 588l-20.4-11.6z" fill="#FAEDDB" p-id="9158"></path><path d="M558.6 576.4L579 588v26.7l-20.7-11.3z" fill="#5F95C0" p-id="9159"></path><path d="M316.9 344.3v27.1l-27.4-15.2v-27.1z" fill="#5F95C0" p-id="9160"></path><path d="M327.3 308.5l-37.8 20.6 27.4 15.2 39.1-21.5z" fill="#FFEBAE" p-id="9161"></path><path d="M356 350.3v-27.5l-39.1 21.5v27.1z" fill="#476367" p-id="9162"></path><path d="M256 344.8v27.1l27.5-15.2v-27.1z" fill="#476367" p-id="9163"></path><path d="M245.7 309l37.8 20.6-27.5 15.2-39-21.5z" fill="#FFEBAE" p-id="9164"></path><path d="M217 350.8v-27.5l39 21.5v27.1z" fill="#B9C5EA" p-id="9165"></path><path d="M242.9 386.3v27.1l-27.4-15.2v-27.1z" fill="#CAD3D2" p-id="9166"></path><path d="M253.3 350.5l-37.8 20.6 27.4 15.2 39.1-21.5z" fill="#FFEBAE" p-id="9167"></path><path d="M282 392.3v-27.5l-39.1 21.5v27.1z" fill="#476367" p-id="9168"></path><path d="M326.5 385.3v27.1l27.5-15.2v-27.1z" fill="#32426B" p-id="9169"></path><path d="M316.2 349.5l37.8 20.6-27.5 15.2-39-21.5z" fill="#FFEBAE" p-id="9170"></path><path d="M287.5 391.3v-27.5l39 21.5v27.1z" fill="#B9C5EA" p-id="9171"></path><path d="M473 556.3V573l27.4-16.7v-15.1z" fill="#32426B" p-id="9172"></path><path d="M367.5 465.5l132.9 75.7-27.4 15.1-134.2-76.5z" fill="#FFEBAE" p-id="9173"></path><path d="M338.8 496.3v-16.5L473 556.3V573z" fill="#B9C5EA" p-id="9174"></path><path d="M219.1 617.8l118.8 68.8 88.5-53.1-115.4-69z" fill="#A0B1CD" p-id="9175"></path><path d="M219.1 617.8l118.8 68.8v43.5l-118.8-70.3z" fill="#FAD256" p-id="9176"></path><path d="M337.9 686.6v43.5l19.9-10.4-0.9-20.4 69.5-41.4v-24.4z" fill="#32426B" p-id="9177"></path></svg>