<?xml version="1.0" standalone="no"?><!DOCTYPE svg PUBLIC "-//W3C//DTD SVG 1.1//EN" "http://www.w3.org/Graphics/SVG/1.1/DTD/svg11.dtd"><svg t="1544198527830" class="icon" style="" viewBox="0 0 1024 1024" version="1.1" xmlns="http://www.w3.org/2000/svg" p-id="883" xmlns:xlink="http://www.w3.org/1999/xlink" width="200" height="200"><defs><style type="text/css"></style></defs><path d="M730.8 300.5L552 432.2h-42.7L344.6 300.5c-21.6-16.8-53.9-2.2-53.9 24.4v516.4c0 14.4 12.3 26.1 27.4 26.1h439.2c15.1 0 27.4-11.7 27.4-26.1V324.9c0-26.6-32.4-41.2-53.9-24.4z" fill="#FAEE00" p-id="884"></path><path d="M784.7 684.7c-20.1 55.1-65.3 127.1-166.9 182.8h139.5c15.1 0 27.4-11.7 27.4-26.1V684.7zM456.3 514v227l62.3-52 62.3 52V514" fill="#F8B62D" p-id="885"></path><path d="M580.9 752.1c-2.5 0-5.1-0.9-7.1-2.6l-55.2-46.1-55.2 46.1c-3.3 2.7-7.9 3.3-11.8 1.5-3.9-1.8-6.4-5.7-6.4-10V514c0-6.1 5-11.1 11.1-11.1s11.1 5 11.1 11.1v203.4l44.2-36.8c4.1-3.4 10.1-3.4 14.2 0l44.2 36.8V514c0-6.1 5-11.1 11.1-11.1s11.1 5 11.1 11.1v227c0 4.3-2.5 8.2-6.4 10-1.7 0.7-3.3 1.1-4.9 1.1z" fill="#3E3A39" p-id="886"></path><path d="M755.2 878.6H282c-22.4 0-40.6-18.2-40.6-40.6V299.2c0-6.1 5-11.1 11.1-11.1s11.1 5 11.1 11.1V838c0 10.2 8.3 18.4 18.4 18.4h473.2c10.2 0 18.4-8.3 18.4-18.4V255.2c0-9.7-5.2-18-14-22.2-8.8-4.2-18.5-3-26 3.2L540.7 385c-1.9 1.5-4.3 2.3-6.8 2.3h-46c-2.6 0-5.1-0.9-7.1-2.6L344.6 270.6c-4.7-3.9-5.3-10.9-1.4-15.6 3.9-4.7 10.9-5.3 15.6-1.4l133.1 111.5h38.2l189.7-146.3c13.8-11.3 32.8-13.6 49.3-5.8 16.4 7.8 26.7 23.9 26.7 42.1V838c0 22.4-18.2 40.6-40.6 40.6zM252.5 266.2c-6.1 0-11.1-5-11.1-11.1 0-18.2 10.2-34.3 26.7-42.1 16.4-7.8 35.4-5.5 49.5 6 4.7 3.9 5.4 10.8 1.6 15.6-3.9 4.7-10.8 5.4-15.6 1.6-7.5-6.1-17.2-7.3-26-3.2-8.8 4.2-14 12.4-14 22.2-0.1 6.1-5 11-11.1 11z" fill="#3E3A39" p-id="887"></path><path d="M456.3 383.6c0-34.4 27.9-62.3 62.3-62.3s62.3 27.9 62.3 62.3" fill="#F8B62D" p-id="888"></path><path d="M580.9 394.7c-6.1 0-11.1-5-11.1-11.1 0-28.3-23-51.3-51.3-51.3-28.3 0-51.3 23-51.3 51.3 0 6.1-5 11.1-11.1 11.1s-11.1-5-11.1-11.1c0-40.5 32.9-73.4 73.4-73.4s73.4 32.9 73.4 73.4c0.2 6.1-4.8 11.1-10.9 11.1z" fill="#3E3A39" p-id="889"></path><path d="M832.5 505.5H204.7c-3.5 0-6.3-2.8-6.3-6.3V395c0-3.5 2.8-6.3 6.3-6.3h627.7c3.5 0 6.3 2.8 6.3 6.3v104.2c0.1 3.5-2.8 6.3-6.2 6.3z" fill="#FFFFFF" p-id="890"></path><path d="M792.2 516.6H245c-31.8 0-57.6-25.8-57.6-57.6v-23.8c0-31.8 25.8-57.6 57.6-57.6h547.3c31.8 0 57.6 25.8 57.6 57.6V459c-0.1 31.7-25.9 57.6-57.7 57.6zM245 399.7c-19.6 0-35.5 15.9-35.5 35.5V459c0 19.6 15.9 35.5 35.5 35.5h547.3c19.6 0 35.5-15.9 35.5-35.5v-23.8c0-19.6-15.9-35.5-35.5-35.5H245zM942.7 880.4h-26.3c-6.1 0-11.1-5-11.1-11.1s5-11.1 11.1-11.1h26.3c6.1 0 11.1 5 11.1 11.1s-5 11.1-11.1 11.1zM128.2 880.4H94.5c-6.1 0-11.1-5-11.1-11.1s5-11.1 11.1-11.1h33.7c6.1 0 11.1 5 11.1 11.1s-5 11.1-11.1 11.1zM874.1 880.4h-711c-6.1 0-11.1-5-11.1-11.1s5-11.1 11.1-11.1h711c6.1 0 11.1 5 11.1 11.1s-5 11.1-11.1 11.1z" fill="#3E3A39" p-id="891"></path><path d="M665.8 191.7c-16.5 0-30-13.5-30-30s13.5-30 30-30 30 13.5 30 30-13.4 30-30 30z m0-45.2c-8.4 0-15.2 6.8-15.2 15.2 0 8.4 6.8 15.2 15.2 15.2 8.4 0 15.2-6.8 15.2-15.2 0.1-8.4-6.8-15.2-15.2-15.2z" fill="#47B7F8" p-id="892"></path><path d="M249.3 139.1h-13.1V126c0-3.5-2.8-6.3-6.3-6.3s-6.3 2.8-6.3 6.3v13.1h-13.1c-3.5 0-6.3 2.8-6.3 6.3s2.8 6.3 6.3 6.3h13.1v13.1c0 3.5 2.8 6.3 6.3 6.3s6.3-2.8 6.3-6.3v-13.1h13.1c3.5 0 6.3-2.8 6.3-6.3s-2.8-6.3-6.3-6.3zM911.9 266.6h-13.1v-13.1c0-3.5-2.8-6.3-6.3-6.3s-6.3 2.8-6.3 6.3v13.1H873c-3.5 0-6.3 2.8-6.3 6.3s2.8 6.3 6.3 6.3h13.1v13.1c0 3.5 2.8 6.3 6.3 6.3s6.3-2.8 6.3-6.3v-13.1h13.1c3.5 0 6.3-2.8 6.3-6.3 0.1-3.5-2.7-6.3-6.2-6.3z" fill="#F7E42F" p-id="893"></path><path d="M117.1 529.2h-15.2V514c0-4.1-3.3-7.4-7.4-7.4s-7.4 3.3-7.4 7.4v15.2H71.9c-4.1 0-7.4 3.3-7.4 7.4 0 4.1 3.3 7.4 7.4 7.4h15.2v15.2c0 4.1 3.3 7.4 7.4 7.4s7.4-3.3 7.4-7.4V544h15.2c4.1 0 7.4-3.3 7.4-7.4 0-4.1-3.3-7.4-7.4-7.4z" fill="#F8B62D" p-id="894"></path><path d="M373.5 157.6m-11.1 0a11.1 11.1 0 1 0 22.2 0 11.1 11.1 0 1 0-22.2 0Z" fill="#F8B62D" p-id="895"></path><path d="M530.2 263.4m-14.7 0a14.7 14.7 0 1 0 29.4 0 14.7 14.7 0 1 0-29.4 0Z" fill="#F8B62D" p-id="896"></path><path d="M128.2 340m-14.7 0a14.7 14.7 0 1 0 29.4 0 14.7 14.7 0 1 0-29.4 0Z" fill="#F7E42F" p-id="897"></path><path d="M113.8 272.9c-16.5 0-30-13.5-30-30s13.5-30 30-30 30 13.5 30 30c0 16.6-13.5 30-30 30z m0-45.2c-8.4 0-15.2 6.8-15.2 15.2 0 8.4 6.8 15.2 15.2 15.2s15.2-6.8 15.2-15.2c0-8.4-6.8-15.2-15.2-15.2z" fill="#F8B62D" p-id="898"></path><path d="M491.9 132.7c-1.6-1.6-4.2-1.6-5.8 0-0.8 0.8-1.2 1.8-1.2 2.9 0 1.1 0.4 2.1 1.2 2.9l13.1 13.1c0.8 0.8 1.8 1.2 2.9 1.2s2.1-0.4 2.9-1.2c1.6-1.6 1.6-4.2 0-5.8l-13.1-13.1zM526.5 167.3c-0.8-0.8-1.8-1.2-2.9-1.2-1.1 0-2.1 0.4-2.9 1.2-1.6 1.6-1.6 4.2 0 5.8l13.1 13.1c0.8 0.8 1.8 1.2 2.9 1.2 1.1 0 2.1-0.4 2.9-1.2 0.8-0.8 1.2-1.8 1.2-2.9 0-1.1-0.4-2.1-1.2-2.9l-13.1-13.1zM523.6 152.8c1.1 0 2.1-0.4 2.9-1.2l13.1-13.1c0.8-0.8 1.2-1.8 1.2-2.9 0-1.1-0.4-2.1-1.2-2.9-1.6-1.6-4.2-1.6-5.8 0l-13.1 13.1c-1.6 1.6-1.6 4.2 0 5.8 0.8 0.8 1.8 1.2 2.9 1.2zM499.3 167.3l-13.1 13.1c-0.8 0.8-1.2 1.8-1.2 2.9 0 1.1 0.4 2.1 1.2 2.9 0.8 0.8 1.8 1.2 2.9 1.2 1.1 0 2.1-0.4 2.9-1.2l13.1-13.1c1.6-1.6 1.6-4.2 0-5.8-1.6-1.5-4.3-1.5-5.8 0zM501.8 159.5c0-2.3-1.8-4.1-4.1-4.1h-18.5c-2.3 0-4.1 1.8-4.1 4.1s1.8 4.1 4.1 4.1h18.5c2.3 0 4.1-1.9 4.1-4.1zM546.6 155.4h-18.5c-2.3 0-4.1 1.8-4.1 4.1s1.8 4.1 4.1 4.1h18.5c2.3 0 4.1-1.8 4.1-4.1s-1.8-4.1-4.1-4.1zM512.9 121.7c-2.3 0-4.1 1.8-4.1 4.1v18.5c0 2.3 1.8 4.1 4.1 4.1s4.1-1.8 4.1-4.1v-18.5c0-2.3-1.9-4.1-4.1-4.1zM512.9 170.6c-2.3 0-4.1 1.8-4.1 4.1v18.5c0 2.3 1.8 4.1 4.1 4.1s4.1-1.8 4.1-4.1v-18.5c0-2.3-1.9-4.1-4.1-4.1z" fill="#FAEE00" p-id="899"></path><path d="M900.7 419.1c-1.6-1.6-4.2-1.6-5.8 0-0.8 0.8-1.2 1.8-1.2 2.9 0 1.1 0.4 2.1 1.2 2.9L908 438c0.8 0.8 1.8 1.2 2.9 1.2 1.1 0 2.1-0.4 2.9-1.2 1.6-1.6 1.6-4.2 0-5.8l-13.1-13.1zM935.3 453.7c-0.8-0.8-1.8-1.2-2.9-1.2-1.1 0-2.1 0.4-2.9 1.2-1.6 1.6-1.6 4.2 0 5.8l13.1 13.1c0.8 0.8 1.8 1.2 2.9 1.2 1.1 0 2.1-0.4 2.9-1.2 0.8-0.8 1.2-1.8 1.2-2.9 0-1.1-0.4-2.1-1.2-2.9l-13.1-13.1zM932.4 439.2c1.1 0 2.1-0.4 2.9-1.2l13.1-13.1c0.8-0.8 1.2-1.8 1.2-2.9 0-1.1-0.4-2.1-1.2-2.9-1.6-1.6-4.2-1.6-5.8 0l-13.1 13.1c-1.6 1.6-1.6 4.2 0 5.8 0.8 0.8 1.8 1.2 2.9 1.2zM908.1 453.7L895 466.8c-0.8 0.8-1.2 1.8-1.2 2.9s0.4 2.1 1.2 2.9c0.8 0.8 1.8 1.2 2.9 1.2 1.1 0 2.1-0.4 2.9-1.2l13.1-13.1c1.6-1.6 1.6-4.2 0-5.8-1.6-1.5-4.3-1.5-5.8 0zM910.6 445.9c0-2.3-1.8-4.1-4.1-4.1H888c-2.3 0-4.1 1.8-4.1 4.1s1.8 4.1 4.1 4.1h18.5c2.3-0.1 4.1-1.9 4.1-4.1zM955.4 441.8h-18.5c-2.3 0-4.1 1.8-4.1 4.1s1.8 4.1 4.1 4.1h18.5c2.3 0 4.1-1.8 4.1-4.1s-1.8-4.1-4.1-4.1zM921.7 408.1c-2.3 0-4.1 1.8-4.1 4.1v18.5c0 2.3 1.8 4.1 4.1 4.1s4.1-1.8 4.1-4.1v-18.5c0-2.3-1.9-4.1-4.1-4.1zM921.7 457c-2.3 0-4.1 1.8-4.1 4.1v18.5c0 2.3 1.8 4.1 4.1 4.1s4.1-1.8 4.1-4.1v-18.5c0-2.3-1.9-4.1-4.1-4.1z" fill="#F8B62D" p-id="900"></path></svg>