<?xml version="1.0" standalone="no"?><!DOCTYPE svg PUBLIC "-//W3C//DTD SVG 1.1//EN" "http://www.w3.org/Graphics/SVG/1.1/DTD/svg11.dtd"><svg t="1544198741604" class="icon" style="" viewBox="0 0 1024 1024" version="1.1" xmlns="http://www.w3.org/2000/svg" p-id="8087" xmlns:xlink="http://www.w3.org/1999/xlink" width="200" height="200"><defs><style type="text/css"></style></defs><path d="M528.622419 139.569302C284.40073 139.569302 86.407069 337.562962 86.407069 581.784651s197.993661 442.215349 442.21535 442.215349S970.837768 826.006339 970.837768 581.784651 772.844107 139.569302 528.622419 139.569302" fill="#46A3FB" p-id="8088"></path><path d="M456.132936 76.030353a12.884833 2.36058 90 1 0 4.721161 0 12.884833 2.36058 90 1 0-4.721161 0Z" fill="#E61F19" p-id="8089"></path><path d="M467.641784 74.432518a12.884833 2.36058 60 1 0 4.088645-2.36058 12.884833 2.36058 60 1 0-4.088645 2.36058Z" fill="#E61F19" p-id="8090"></path><path d="M476.785843 67.332245a12.884833 2.36058 30 1 0 2.36058-4.088645 12.884833 2.36058 30 1 0-2.36058 4.088645Z" fill="#E61F19" p-id="8091"></path><path d="M468.23091 54.194986a12.884833 2.36058 0 1 0 25.769666 0 12.884833 2.36058 0 1 0-25.769666 0Z" fill="#E61F19" p-id="8092"></path><path d="M467.191054 49.509376a2.36058 12.884833 60 1 0 22.317186-12.884834 2.36058 12.884833 60 1 0-22.317186 12.884834Z" fill="#E61F19" p-id="8093"></path><path d="M463.949626 45.938977a2.36058 12.884833 30 1 0 12.884833-22.317186 2.36058 12.884833 30 1 0-12.884833 22.317186Z" fill="#E61F19" p-id="8094"></path><path d="M456.919796 31.57276a12.884833 2.36058 90 1 0 4.721161 0 12.884833 2.36058 90 1 0-4.721161 0Z" fill="#E61F19" p-id="8095"></path><path d="M446.120056 35.583708a12.884833 2.36058 60 1 0 4.088644-2.36058 12.884833 2.36058 60 1 0-4.088644 2.36058Z" fill="#E61F19" p-id="8096"></path><path d="M438.655036 44.483977a12.884833 2.36058 30 1 0 2.36058-4.088645 12.884833 2.36058 30 1 0-2.36058 4.088645Z" fill="#E61F19" p-id="8097"></path><path d="M423.773317 53.408126a12.884833 2.36058 0 1 0 25.769666 0 12.884833 2.36058 0 1 0-25.769666 0Z" fill="#E61F19" p-id="8098"></path><path d="M428.257064 71.080283a2.36058 12.884833 60 1 0 22.317186-12.884834 2.36058 12.884833 60 1 0-22.317186 12.884834Z" fill="#E61F19" p-id="8099"></path><path d="M441.016178 84.020606a2.36058 12.884833 30 1 0 12.884834-22.317186 2.36058 12.884833 30 1 0-12.884834 22.317186Z" fill="#E61F19" p-id="8100"></path><path d="M371.938911 15.638844m-15.638844 0a15.638844 15.638844 0 1 0 31.277687 0 15.638844 15.638844 0 1 0-31.277687 0Z" fill="#E61F19" p-id="8101"></path><path d="M612.324657 99.537797c4.426088-2.262223 6.68831-6.786668 5.016232-10.032466l-32.654692-63.145519c-1.672078-3.245798-6.589953-4.032658-11.01604-1.770435s-6.68831 6.786668-5.016233 10.032465L601.308616 97.865719c1.672078 3.245798 6.589953 4.032658 11.016041 1.672078z" fill="#7CCBE2" p-id="8102"></path><path d="M630.422438 42.785515c-2.262223-4.426088-6.786668-6.68831-10.032466-5.016233L557.244453 70.423975c-3.245798 1.672078-4.032658 6.589953-1.770435 11.01604 2.262223 4.426088 6.786668 6.68831 10.032466 5.016233l63.145519-32.654692c3.344155-1.672078 4.131015-6.589953 1.770435-11.016041z" fill="#7CCBE2" p-id="8103"></path><path d="M249.877245 160.617808c5.803093-2.950725 8.753818-8.852176 6.491596-13.081548l-42.785516-82.718663c-2.163865-4.229373-8.655461-5.311305-14.458553-2.262223-5.803093 2.950725-8.753818 8.852176-6.491596 13.081548l42.785516 82.718663c2.163865 4.229373 8.655461 5.212948 14.458553 2.262223z" fill="#DAB647" p-id="8104"></path><path d="M273.581404 86.161176c-2.950725-5.803093-8.852176-8.753818-13.081548-6.491596L177.781193 122.455096c-4.229373 2.163865-5.311305 8.655461-2.262223 14.458553 2.950725 5.803093 8.852176 8.753818 13.081549 6.491595l82.718663-42.785515c4.229373-2.163865 5.311305-8.655461 2.262222-14.458553z" fill="#DAB647" p-id="8105"></path><path d="M766.844299 63.538949c21.835366 0 39.638075 17.605994 39.638075 39.244645s-17.802709 39.244645-39.638075 39.244645c-21.835366 0-39.638075-17.605994-39.638075-39.244645s17.802709-39.244645 39.638075-39.244645z m0 68.161752c16.032274 0 29.113822-12.983191 29.113822-28.818749s-13.081548-28.818749-29.113822-28.81875-29.113822 12.983191-29.113822 28.81875 13.081548 28.818749 29.113822 28.818749z" fill="#E62A52" p-id="8106"></path><path d="M638.881183 961.444626c-5.704735 0-11.212756-3.344155-13.573336-9.048891-3.14744-7.47517 0.295073-16.130631 7.868601-19.376428C784.253578 869.185285 881.824224 721.944098 881.824224 557.982134c0-224.45183-182.64989-407.101719-407.101719-407.101719-8.163673 0-14.753626-6.589953-14.753626-14.753626s6.589953-14.753626 14.753626-14.753626c58.916146 0 116.160215 11.507828 169.961771 34.32677 52.031121 22.032081 98.652579 53.506484 138.782442 93.537988 40.129863 40.129863 71.604265 86.751321 93.537989 138.782442 22.818942 53.801556 34.32677 111.045625 34.326769 169.961771 0 87.538181-25.769667 171.928921-74.55499 244.123331-47.605033 70.423975-113.99635 125.110748-192.09221 158.158871-1.868793 0.78686-3.835943 1.18029-5.803093 1.18029z" fill="" p-id="8107"></path><path d="M474.722505 994.591106v-29.507252c37.965998 0 75.538565-5.212948 111.734127-15.540486l8.065316 28.425319c-38.752858 11.016041-79.079435 16.622419-119.799443 16.622419z" fill="" p-id="8108"></path><path d="M417.183364 990.755163c-0.688503 0-1.377005 0-1.96715-0.098358-103.668812-14.163481-198.977236-65.407742-268.417636-144.290462C76.768034 766.696763 38.113534 664.306599 38.113534 558.080492c0-70.22726 17.114206-140.061089 49.375468-201.927961 31.277687-59.801364 76.817213-112.42263 131.602344-152.060705 6.589953-4.819518 15.835559-3.344155 20.556719 3.344155 4.819518 6.589953 3.245798 15.835559-3.344156 20.556719C130.667947 304.318125 67.620786 427.756796 67.620786 557.982134c0 202.616463 151.175487 376.020747 351.529728 403.364134 8.065316 1.081933 13.770051 8.557103 12.589761 16.622419-0.983575 7.376813-7.278455 12.786476-14.556911 12.786476z" fill="" p-id="8109"></path><path d="M269.155316 204.288541c-5.212948 0-10.229181-2.75401-12.884833-7.573528-3.9343-7.08174-1.475363-16.130631 5.704736-20.064931 64.620882-36.097205 138.192297-55.276919 212.747286-55.276919 8.163673 0 14.753626 6.589953 14.753626 14.753626s-6.589953 14.753626-14.753626 14.753626c-69.4404 0-138.093939 17.802709-198.288733 51.440976-2.36058 1.278648-4.819518 1.96715-7.278456 1.96715z" fill="" p-id="8110"></path><path d="M692.584382 500.344635c-11.409471 0-22.032081-6.098165-27.736817-16.032273-5.704735-9.934108-5.704735-22.130439 0-32.064547 5.704735-9.934108 16.327346-16.032274 27.736817-16.032274 17.704351 0 32.064547 14.360196 32.064547 32.064547s-14.360196 32.064547-32.064547 32.064547m-59.309577-70.227259c8.065316-12.589761 19.966574-22.228796 33.834983-27.638459-17.310921-52.227836-74.358275-188.354625-211.665354-248.254347l51.244261-12.786476S650.389012 226.910767 695.731822 397.856114c8.950533 0.39343 17.507636 2.458938 25.277879 5.90145 16.228989-13.376621 50.063971-47.211603 67.669965-108.586687l25.671309 25.671309s-12.884833 66.784747-66.883104 103.177024c3.344155 4.229373 6.29488 8.852176 8.65546 13.868409 84.095668 11.212756 135.044856 75.243492 135.044856 75.243492v51.244261c-40.720008-62.358659-96.685429-81.440015-128.749975-87.243108-1.96715 15.442129-8.950533 29.900682-19.966574 40.916723 51.047546 190.51849-5.016233 366.775142-5.016233 366.775141l-51.244261 25.67131C767.729517 762.762463 727.304582 597.816924 707.63308 537.2287c-15.343771 3.344155-31.277687 1.475363-45.441168-5.212947C527.737201 748.402267 237.582557 897.610604 237.582557 897.610604L211.911248 871.939295c281.695899-157.76544 396.970896-311.596581 427.265008-357.726251-14.163481-16.425704-19.966574-38.359428-15.737201-59.604649-339.726827-96.488714-552.474114 32.851407-552.474114 32.851407V449.002017c277.958313-114.684853 504.278936-41.605225 562.309864-18.884641z m0 0" fill="" p-id="8111"></path><path d="M111.193161 606.27567c-7.376813 0-13.671693-5.409663-14.655268-12.884833-2.655653-21.146864-3.737585-42.5888-3.344156-63.637307 0.196715-8.163673 6.885025-14.655268 15.048699-14.458554 8.163673 0.196715 14.655268 6.885025 14.458553 15.048699-0.39343 19.671501 0.688503 39.638075 3.147441 59.407934 0.983575 8.065316-4.72116 15.442129-12.786476 16.425703-0.590145 0.098358-1.278648 0.098358-1.868793 0.098358zM159.978484 759.418308c-5.311305 0-10.425896-2.852368-13.081548-7.868601-16.819134-31.57276-29.900682-64.915954-38.949573-99.046009-2.065508-7.868601 2.655653-15.933916 10.524254-17.999424 7.868601-2.065508 15.933916 2.655653 17.999423 10.524254 8.458746 32.064547 20.753434 63.243877 36.392278 92.751128 3.835943 7.180098 1.081933 16.130631-6.098166 19.966574-2.065508 1.18029-4.426088 1.672078-6.786668 1.672078z" fill="#FFFFFF" p-id="8112"></path></svg>