<?xml version="1.0" standalone="no"?><!DOCTYPE svg PUBLIC "-//W3C//DTD SVG 1.1//EN" "http://www.w3.org/Graphics/SVG/1.1/DTD/svg11.dtd"><svg t="1544198634583" class="icon" style="" viewBox="0 0 1024 1024" version="1.1" xmlns="http://www.w3.org/2000/svg" p-id="3615" xmlns:xlink="http://www.w3.org/1999/xlink" width="200" height="200"><defs><style type="text/css"></style></defs><path d="M734 926H323L223 381c0-312 611-312 611 0L734 926z" fill="#FFFFFF" p-id="3616"></path><path d="M734 951H323c-12.1 0-22.4-8.6-24.6-20.5l-100-545c-0.3-1.5-0.4-3-0.4-4.5 0-41.8 9.9-80.5 29.5-114.8 18-31.6 43.9-58.9 76.9-81.4 59.5-40.5 139.1-62.8 224.1-62.8s164.6 22.3 224.1 62.8c33 22.4 58.8 49.8 76.9 81.4 19.6 34.3 29.5 73 29.5 114.8 0 1.5-0.1 3-0.4 4.5l-100 545c-2.2 11.9-12.5 20.5-24.6 20.5z m-390.2-50h369.3L809 378.8c-0.8-79.1-46.3-126.6-84.5-152.6-50.6-34.4-122-54.2-196-54.2s-145.4 19.7-196 54.2c-38.2 26-83.7 73.6-84.5 152.6L343.8 901z" fill="#212347" p-id="3617"></path><path d="M382.6 605l-10.1 4.4c-9.4 4.1-20.3-0.3-24.3-9.6L170.9 189.3c-4.1-9.4 0.3-20.3 9.6-24.3l10.1-4.4c9.4-4.1 20.3 0.3 24.3 9.6l177.2 410.4c4.2 9.5-0.1 20.4-9.5 24.4z" fill="#E59900" p-id="3618"></path><path d="M373.4 609l-10.1 4.4c-9.4 4.1-20.3-0.3-24.3-9.6L161.8 193.3c-4.1-9.4 0.3-20.3 9.6-24.3l10.1-4.4c9.4-4.1 20.3 0.3 24.3 9.6L383 584.6c4.1 9.4-0.2 20.3-9.6 24.4z" fill="#FFB000" p-id="3619"></path><path d="M376.4 656.6l-10.7 2.6c-9.9 2.4-19.9-3.8-22.3-13.7L239.6 210.7c-2.4-9.9 3.8-19.9 13.7-22.3l10.7-2.6c9.9-2.4 19.9 3.8 22.3 13.7l103.9 434.8c2.3 9.9-3.8 19.9-13.8 22.3z" fill="#E59900" p-id="3620"></path><path d="M366.7 658.9l-10.7 2.6c-9.9 2.4-19.9-3.8-22.3-13.7L229.9 213c-2.4-9.9 3.8-19.9 13.7-22.3l10.7-2.6c9.9-2.4 19.9 3.8 22.3 13.7l103.9 434.8c2.3 10-3.9 19.9-13.8 22.3z" fill="#F4A506" p-id="3621"></path><path d="M319 510.8l-11 0.6c-10.2 0.6-18.9-7.2-19.5-17.4L263 47.7c-0.6-10.2 7.2-18.9 17.4-19.5l11-0.6c10.2-0.6 18.9 7.2 19.5 17.4l25.5 446.3c0.6 10.1-7.2 18.9-17.4 19.5z" fill="#E59900" p-id="3622"></path><path d="M309 511.3l-11 0.6c-10.2 0.6-18.9-7.2-19.5-17.4L253 48.3c-0.6-10.2 7.2-18.9 17.4-19.5l11-0.6c10.2-0.6 18.9 7.2 19.5 17.4l25.5 446.3c0.6 10.1-7.2 18.9-17.4 19.4z" fill="#FFB000" p-id="3623"></path><path d="M361.9 601.8l-11 0.6c-10.2 0.6-18.9-7.2-19.5-17.4l-25.5-446.3c-0.6-10.2 7.2-18.9 17.4-19.5l11-0.6c10.2-0.6 18.9 7.2 19.5 17.4l25.5 446.3c0.6 10.2-7.2 19-17.4 19.5z" fill="#E59900" p-id="3624"></path><path d="M351.9 602.4l-11 0.6c-10.2 0.6-18.9-7.2-19.5-17.4l-25.5-446.3c-0.6-10.2 7.2-18.9 17.4-19.5l11-0.6c10.2-0.6 18.9 7.2 19.5 17.4l25.5 446.3c0.6 10.2-7.2 18.9-17.4 19.5z" fill="#FFB000" p-id="3625"></path><path d="M379.2 536.4l-11-0.7c-10.2-0.7-17.9-9.5-17.3-19.7l28.9-446c0.7-10.2 9.5-17.9 19.7-17.3l11 0.7c10.2 0.7 17.9 9.5 17.3 19.7L399 519.2c-0.8 10.2-9.6 17.9-19.8 17.2z" fill="#E59900" p-id="3626"></path><path d="M369.2 535.8l-11-0.7c-10.2-0.7-17.9-9.5-17.3-19.7l28.8-446.1c0.7-10.2 9.5-17.9 19.7-17.3l11 0.7c10.2 0.7 17.9 9.5 17.3 19.7l-28.8 446.1c-0.7 10.2-9.5 18-19.7 17.3z" fill="#FFB000" p-id="3627"></path><path d="M427.6 631.2l-11-0.7c-10.2-0.7-17.9-9.5-17.3-19.7l28.8-446.1c0.7-10.2 9.5-17.9 19.7-17.3l11 0.7c10.2 0.7 17.9 9.5 17.3 19.7l-28.8 446.1c-0.7 10.2-9.5 17.9-19.7 17.3z" fill="#E59900" p-id="3628"></path><path d="M417.6 630.5l-11-0.7c-10.2-0.7-17.9-9.5-17.3-19.7L418.1 164c0.7-10.2 9.5-17.9 19.7-17.3l11 0.7c10.2 0.7 17.9 9.5 17.3 19.7l-28.8 446.1c-0.7 10.2-9.5 18-19.7 17.3z" fill="#F4A403" p-id="3629"></path><path d="M481.2 542.5l-11-0.3c-10.2-0.3-18.3-8.8-18-19l12.9-446.8c0.3-10.2 8.8-18.3 19-18l11 0.3c10.2 0.3 18.3 8.8 18 19l-12.9 446.8c-0.2 10.3-8.7 18.3-19 18z" fill="#E59900" p-id="3630"></path><path d="M471.3 542.2l-11-0.3c-10.2-0.3-18.3-8.8-18-19l12.9-446.8c0.3-10.2 8.8-18.3 19-18l11 0.3c10.2 0.3 18.3 8.8 18 19l-12.9 446.8c-0.3 10.3-8.8 18.3-19 18z" fill="#FFB000" p-id="3631"></path><path d="M593.6 683.2l-11 0.7c-10.2 0.7-19-7-19.7-17.2l-30.3-446c-0.7-10.2 7-19 17.2-19.7l11-0.7c10.2-0.7 19 7 19.7 17.2l30.3 446c0.7 10.2-7 19-17.2 19.7z" fill="#E59900" p-id="3632"></path><path d="M583.7 683.9l-11 0.7c-10.2 0.7-19-7-19.7-17.2l-30.3-446c-0.7-10.2 7-19 17.2-19.7l11-0.7c10.2-0.7 19 7 19.7 17.2l30.3 446c0.7 10.2-7 19-17.2 19.7z" fill="#F4A506" p-id="3633"></path><path d="M664.5 556l-11 0.7c-10.2 0.7-19-7-19.7-17.2l-30.3-446c-0.7-10.2 7-19 17.2-19.7l11-0.7c10.2-0.7 19 7 19.7 17.2l30.3 446c0.7 10.2-7 19-17.2 19.7z" fill="#E59900" p-id="3634"></path><path d="M654.5 556.6l-11 0.7c-10.2 0.7-19-7-19.7-17.2l-30.3-446c-0.7-10.2 7-19 17.2-19.7l11-0.7c10.2-0.7 19 7 19.7 17.2l30.3 446c0.7 10.2-7 19.1-17.2 19.7z" fill="#F4A506" p-id="3635"></path><path d="M602.4 547.4l-11 0.7c-10.2 0.7-19-7-19.7-17.2l-30.3-446c-0.7-10.2 7-19 17.2-19.7l11-0.7c10.2-0.7 19 7 19.7 17.2l30.3 446c0.7 10.1-7 19-17.2 19.7z" fill="#E59900" p-id="3636"></path><path d="M592.5 548l-11 0.7c-10.2 0.7-19-7-19.7-17.2l-30.3-446c-0.7-10.2 7-19 17.2-19.7l11-0.7c10.2-0.7 19 7 19.7 17.2l30.3 446c0.7 10.2-7 19-17.2 19.7z" fill="#F4A506" p-id="3637"></path><path d="M497.5 574l-10.9-1.2c-10.2-1.1-17.5-10.2-16.4-20.4L518.3 108c1.1-10.2 10.2-17.5 20.4-16.4l10.9 1.2c10.2 1.1 17.5 10.2 16.4 20.4l-48.1 444.4c-1.1 10.2-10.3 17.5-20.4 16.4z" fill="#E59900" p-id="3638"></path><path d="M487.5 573l-10.9-1.2c-10.2-1.1-17.5-10.2-16.4-20.4L508.3 107c1.1-10.2 10.2-17.5 20.4-16.4l10.9 1.2c10.2 1.1 17.5 10.2 16.4 20.4l-48.1 444.4c-1.1 10.1-10.2 17.5-20.4 16.4z" fill="#FFB000" p-id="3639"></path><path d="M635.1 625.7l-11 0.7c-10.2 0.7-19-7-19.7-17.2l-30.3-446c-0.7-10.2 7-19 17.2-19.7l11-0.7c10.2-0.7 19 7 19.7 17.2l30.3 446c0.7 10.2-7 19.1-17.2 19.7z" fill="#E59900" p-id="3640"></path><path d="M625.1 626.4l-11 0.7c-10.2 0.7-19-7-19.7-17.2l-30.3-446c-0.7-10.2 7-19 17.2-19.7l11-0.7c10.2-0.7 19 7 19.7 17.2l30.3 446c0.7 10.2-7 19-17.2 19.7z" fill="#FFB000" p-id="3641"></path><path d="M669.5 731.4l-11 0.7c-10.2 0.7-19-7-19.7-17.2l-30.3-446c-0.7-10.2 7-19 17.2-19.7l11-0.7c10.2-0.7 19 7 19.7 17.2l30.3 446c0.7 10.2-7 19-17.2 19.7z" fill="#E59900" p-id="3642"></path><path d="M659.5 732.1l-11 0.7c-10.2 0.7-19-7-19.7-17.2l-30.3-446c-0.7-10.2 7-19 17.2-19.7l11-0.7c10.2-0.7 19 7 19.7 17.2l30.3 446c0.7 10.2-7 19-17.2 19.7z" fill="#FFB000" p-id="3643"></path><path d="M669.8 555.2l-10.9-1.7c-10.1-1.6-17-11-15.4-21.1l69.2-441.6c1.6-10.1 11-17 21.1-15.4l10.9 1.7c10.1 1.6 17 11 15.4 21.1L691 539.8c-1.6 10.1-11.1 17-21.2 15.4z" fill="#E59900" p-id="3644"></path><path d="M660 553.6l-10.9-1.7c-10.1-1.6-17-11-15.4-21.1l69.2-441.6c1.6-10.1 11-17 21.1-15.4l10.9 1.7c10.1 1.6 17 11 15.4 21.1l-69.2 441.6c-1.6 10.1-11 17-21.1 15.4z" fill="#F2A203" p-id="3645"></path><path d="M711.3 602.6l-11 0.7c-10.2 0.7-19-7-19.7-17.2l-30.3-446c-0.7-10.2 7-19 17.2-19.7l11-0.7c10.2-0.7 19 7 19.7 17.2l30.3 446c0.7 10.2-7 19-17.2 19.7z" fill="#E59900" p-id="3646"></path><path d="M701.3 603.3l-11 0.7c-10.2 0.7-19-7-19.7-17.2l-30.3-446c-0.7-10.2 7-19 17.2-19.7l11-0.7c10.2-0.7 19 7 19.7 17.2l30.3 446c0.7 10.2-7 19-17.2 19.7z" fill="#FFB000" p-id="3647"></path><path d="M650.4 576.5l-10-4.5c-9.3-4.2-13.5-15.1-9.3-24.5l183.5-407.6c4.2-9.3 15.1-13.5 24.5-9.3l10 4.5c9.3 4.2 13.5 15.1 9.3 24.5L674.8 567.2c-4.2 9.3-15.1 13.5-24.4 9.3z" fill="#D38905" p-id="3648"></path><path d="M641.2 572.4l-10-4.5c-9.3-4.2-13.5-15.1-9.3-24.5l183.5-407.6c4.2-9.3 15.1-13.5 24.5-9.3l10 4.5c9.3 4.2 13.5 15.1 9.3 24.5L665.7 563.1c-4.2 9.3-15.1 13.5-24.5 9.3z" fill="#E09705" p-id="3649"></path><path d="M708.1 601.8l-10.9-1.7c-10.1-1.6-17-11-15.4-21.1L751 137.4c1.6-10.1 11-17 21.1-15.4l10.9 1.7c10.1 1.6 17 11 15.4 21.1l-69.2 441.6c-1.5 10.1-11 17-21.1 15.4z" fill="#E59900" p-id="3650"></path><path d="M698.3 600.3l-10.9-1.7c-10.1-1.6-17-11-15.4-21.1l69.2-441.6c1.6-10.1 11-17 21.1-15.4l10.9 1.7c10.1 1.6 17 11 15.4 21.1l-69.2 441.6c-1.6 10.1-11 17-21.1 15.4z" fill="#FFB000" p-id="3651"></path><path d="M668 635l-10-4.5c-9.3-4.2-13.5-15.1-9.3-24.5l183.5-407.6c4.2-9.3 15.1-13.5 24.5-9.3l10 4.5c9.3 4.2 13.5 15.1 9.3 24.5L692.4 625.7c-4.2 9.3-15.1 13.5-24.4 9.3z" fill="#E59900" p-id="3652"></path><path d="M658.8 630.9l-10-4.5c-9.3-4.2-13.5-15.1-9.3-24.5L823 194.3c4.2-9.3 15.1-13.5 24.5-9.3l10 4.5c9.3 4.2 13.5 15.1 9.3 24.5L683.3 621.6c-4.2 9.3-15.1 13.4-24.5 9.3z" fill="#FFB000" p-id="3653"></path><path d="M223 381h611L734 926H323z" fill="#212347" p-id="3654"></path><path d="M734 951H323c-12.1 0-22.4-8.6-24.6-20.5l-100-545c-1.3-7.3 0.6-14.8 5.4-20.5 4.7-5.7 11.8-9 19.2-9h611c7.4 0 14.5 3.3 19.2 9 4.8 5.7 6.7 13.2 5.4 20.5l-100 545c-2.2 11.9-12.5 20.5-24.6 20.5z m-390.2-50h369.3L804 406H253l90.8 495z" fill="#212347" p-id="3655"></path><path d="M237 593h582l-46 256H285z" fill="#DB2323" p-id="3656"></path><path d="M253 680h550v10H253z" fill="#FFFFFF" p-id="3657"></path><path d="M267 761h522v5H267z" fill="#FFFFFF" p-id="3658"></path></svg>