<?xml version="1.0" standalone="no"?><!DOCTYPE svg PUBLIC "-//W3C//DTD SVG 1.1//EN" "http://www.w3.org/Graphics/SVG/1.1/DTD/svg11.dtd"><svg t="1544198671771" class="icon" style="" viewBox="0 0 1024 1024" version="1.1" xmlns="http://www.w3.org/2000/svg" p-id="4982" xmlns:xlink="http://www.w3.org/1999/xlink" width="200" height="200"><defs><style type="text/css"></style></defs><path d="M477.512953 807.792746h68.974094a10.611399 10.611399 0 0 1 10.611399 10.611399v160.497409a45.098446 45.098446 0 0 1-45.098446 45.098446 45.098446 45.098446 0 0 1-45.098446-45.098446V818.404145a10.611399 10.611399 0 0 1 10.611399-10.611399z" fill="#FFCA3E" p-id="4983"></path><path d="M728.207254 282.528497c-35.813472-1.326425-57.036269 75.606218-96.829016 75.606218s-60.935959-78.259067-96.829015-79.585492-62.341969 72.953368-110.093264 74.279793c-37.219482 1.034611-53.056995-71.547358-98.155441-72.953368-19.896373-0.62342-41.968083 17.813886-59.689119 37.524559V817.07772a15.917098 15.917098 0 0 0 15.917098 15.917099h458.943006a15.917098 15.917098 0 0 0 15.917098-15.917099V304.613472c-9.125803-12.720415-19.100518-21.713575-29.181347-22.084975z" fill="#39BDFF" p-id="4984"></path><path d="M512 0C377.036269 0 266.611399 110.42487 266.611399 245.388601v72.011606c17.721036-19.710674 39.792746-38.147979 59.689119-37.524559 45.098446 1.40601 60.935959 73.987979 98.155441 72.953368 47.751295-1.326425 74.279793-75.606218 110.093264-74.279793s57.036269 79.585492 96.829015 79.585492 61.015544-76.932642 96.829016-75.606218c10.080829 0.371399 20.055544 9.36456 29.181347 22.084975V245.388601C757.388601 110.42487 646.963731 0 512 0z" fill="#C0EDFF" p-id="4985"></path><path d="M652.601036 733.512953a6.632124 6.632124 0 0 1-6.632124-6.632124V439.046632a6.632124 6.632124 0 0 1 13.264249 0v287.834197a6.632124 6.632124 0 0 1-6.632125 6.632124zM512 733.512953a6.632124 6.632124 0 0 1-6.632124-6.632124V439.046632a6.632124 6.632124 0 0 1 13.264248 0v287.834197a6.632124 6.632124 0 0 1-6.632124 6.632124zM376.704663 733.512953a6.632124 6.632124 0 0 1-6.632124-6.632124V439.046632a6.632124 6.632124 0 0 1 13.264249 0v287.834197a6.632124 6.632124 0 0 1-6.632125 6.632124z" fill="#FFFFFF" p-id="4986"></path></svg>